<mxfile host="app.diagrams.net" modified="2023-07-28T06:50:28.473Z" agent="Mozilla/5.0 (Macintosh; Intel Mac OS X 10_15_7) AppleWebKit/537.36 (KHTML, like Gecko) Chrome/115.0.0.0 Safari/537.36" version="21.6.5" etag="dEA0yStPqYmW0iGbPE7l" type="github">
  <diagram name="Page-1" id="6l__qcB1oOdCNR8wkr0t">
    <mxGraphModel>
      <root>
        <mxCell id="0" />
        <mxCell id="1" parent="0" />
      </root>
    </mxGraphModel>
  </diagram>
</mxfile>
